<svg width="48" height="48" viewBox="0 0 48 48" fill="none" xmlns="http://www.w3.org/2000/svg">
<path fillRule="evenodd" clipRule="evenodd" d="M17.9989 9C18.3248 9.00007 18.6419 9.10629 18.9021 9.3026C19.1622 9.4989 19.3514 9.77461 19.4409 10.088L21.0669 15.78C21.417 17.0058 22.0738 18.1222 22.9753 19.0237C23.8767 19.9251 24.9931 20.5819 26.2189 20.932L31.9109 22.558C32.2241 22.6477 32.4996 22.837 32.6957 23.0971C32.8918 23.3573 32.9978 23.6742 32.9978 24C32.9978 24.3258 32.8918 24.6427 32.6957 24.9029C32.4996 25.163 32.2241 25.3523 31.9109 25.442L26.2189 27.068C24.9931 27.4181 23.8767 28.0749 22.9753 28.9763C22.0738 29.8778 21.417 30.9942 21.0669 32.22L19.4409 37.912C19.3512 38.2252 19.162 38.5007 18.9018 38.6968C18.6416 38.8929 18.3247 38.9989 17.9989 38.9989C17.6731 38.9989 17.3562 38.8929 17.096 38.6968C16.8359 38.5007 16.6466 38.2252 16.5569 37.912L14.9309 32.22C14.5808 30.9942 13.924 29.8778 13.0226 28.9763C12.1211 28.0749 11.0048 27.4181 9.77892 27.068L4.08692 25.442C3.77373 25.3523 3.49826 25.163 3.30216 24.9029C3.10607 24.6427 3 24.3258 3 24C3 23.6742 3.10607 23.3573 3.30216 23.0971C3.49826 22.837 3.77373 22.6477 4.08692 22.558L9.77892 20.932C11.0048 20.5819 12.1211 19.9251 13.0226 19.0237C13.924 18.1222 14.5808 17.0058 14.9309 15.78L16.5569 10.088C16.6464 9.77461 16.8356 9.4989 17.0958 9.3026C17.356 9.10629 17.673 9.00007 17.9989 9ZM35.9989 3C36.3336 2.99981 36.6586 3.11153 36.9225 3.31737C37.1863 3.52322 37.3737 3.81137 37.4549 4.136L37.9709 6.208C38.4429 8.088 39.9109 9.556 41.7909 10.028L43.8629 10.544C44.1882 10.6246 44.4771 10.8117 44.6836 11.0756C44.8901 11.3395 45.0023 11.6649 45.0023 12C45.0023 12.3351 44.8901 12.6605 44.6836 12.9244C44.4771 13.1883 44.1882 13.3754 43.8629 13.456L41.7909 13.972C39.9109 14.444 38.4429 15.912 37.9709 17.792L37.4549 19.864C37.3744 20.1893 37.1872 20.4782 36.9233 20.6847C36.6594 20.8912 36.334 21.0034 35.9989 21.0034C35.6638 21.0034 35.3384 20.8912 35.0745 20.6847C34.8106 20.4782 34.6235 20.1893 34.5429 19.864L34.0269 17.792C33.7961 16.8689 33.3188 16.0258 32.646 15.353C31.9731 14.6801 31.1301 14.2028 30.2069 13.972L28.1349 13.456C27.8097 13.3754 27.5208 13.1883 27.3143 12.9244C27.1078 12.6605 26.9956 12.3351 26.9956 12C26.9956 11.6649 27.1078 11.3395 27.3143 11.0756C27.5208 10.8117 27.8097 10.6246 28.1349 10.544L30.2069 10.028C31.1301 9.79722 31.9731 9.3199 32.646 8.64705C33.3188 7.9742 33.7961 7.13114 34.0269 6.208L34.5429 4.136C34.6241 3.81137 34.8115 3.52322 35.0754 3.31737C35.3392 3.11153 35.6643 2.99981 35.9989 3ZM32.9989 30C33.314 29.9998 33.621 30.0988 33.8766 30.283C34.1322 30.4671 34.3234 30.7271 34.4229 31.026L35.2109 33.392C35.5109 34.286 36.2109 34.99 37.1069 35.288L39.4729 36.078C39.7709 36.178 40.0298 36.3691 40.2133 36.6242C40.3968 36.8794 40.4955 37.1857 40.4955 37.5C40.4955 37.8143 40.3968 38.1206 40.2133 38.3758C40.0298 38.6309 39.7709 38.822 39.4729 38.922L37.1069 39.712C36.2129 40.012 35.5089 40.712 35.2109 41.608L34.4209 43.974C34.3209 44.2719 34.1298 44.5309 33.8747 44.7144C33.6195 44.8979 33.3132 44.9966 32.9989 44.9966C32.6846 44.9966 32.3783 44.8979 32.1232 44.7144C31.868 44.5309 31.6769 44.2719 31.5769 43.974L30.7869 41.608C30.6396 41.1666 30.3916 40.7655 30.0625 40.4364C29.7335 40.1073 29.3324 39.8593 28.8909 39.712L26.5249 38.922C26.227 38.822 25.968 38.6309 25.7845 38.3758C25.601 38.1206 25.5023 37.8143 25.5023 37.5C25.5023 37.1857 25.601 36.8794 25.7845 36.6242C25.968 36.3691 26.227 36.178 26.5249 36.078L28.8909 35.288C29.7849 34.988 30.4889 34.288 30.7869 33.392L31.5769 31.026C31.6764 30.7274 31.8672 30.4677 32.1224 30.2836C32.3776 30.0994 32.6842 30.0002 32.9989 30Z" fill="url(#paint0_linear_7423_12536)"/>
<path fillRule="evenodd" clipRule="evenodd" d="M17.9989 9C18.3248 9.00007 18.6419 9.10629 18.9021 9.3026C19.1622 9.4989 19.3514 9.77461 19.4409 10.088L21.0669 15.78C21.417 17.0058 22.0738 18.1222 22.9753 19.0237C23.8767 19.9251 24.9931 20.5819 26.2189 20.932L31.9109 22.558C32.2241 22.6477 32.4996 22.837 32.6957 23.0971C32.8918 23.3573 32.9978 23.6742 32.9978 24C32.9978 24.3258 32.8918 24.6427 32.6957 24.9029C32.4996 25.163 32.2241 25.3523 31.9109 25.442L26.2189 27.068C24.9931 27.4181 23.8767 28.0749 22.9753 28.9763C22.0738 29.8778 21.417 30.9942 21.0669 32.22L19.4409 37.912C19.3512 38.2252 19.162 38.5007 18.9018 38.6968C18.6416 38.8929 18.3247 38.9989 17.9989 38.9989C17.6731 38.9989 17.3562 38.8929 17.096 38.6968C16.8359 38.5007 16.6466 38.2252 16.5569 37.912L14.9309 32.22C14.5808 30.9942 13.924 29.8778 13.0226 28.9763C12.1211 28.0749 11.0048 27.4181 9.77892 27.068L4.08692 25.442C3.77373 25.3523 3.49826 25.163 3.30216 24.9029C3.10607 24.6427 3 24.3258 3 24C3 23.6742 3.10607 23.3573 3.30216 23.0971C3.49826 22.837 3.77373 22.6477 4.08692 22.558L9.77892 20.932C11.0048 20.5819 12.1211 19.9251 13.0226 19.0237C13.924 18.1222 14.5808 17.0058 14.9309 15.78L16.5569 10.088C16.6464 9.77461 16.8356 9.4989 17.0958 9.3026C17.356 9.10629 17.673 9.00007 17.9989 9ZM35.9989 3C36.3336 2.99981 36.6586 3.11153 36.9225 3.31737C37.1863 3.52322 37.3737 3.81137 37.4549 4.136L37.9709 6.208C38.4429 8.088 39.9109 9.556 41.7909 10.028L43.8629 10.544C44.1882 10.6246 44.4771 10.8117 44.6836 11.0756C44.8901 11.3395 45.0023 11.6649 45.0023 12C45.0023 12.3351 44.8901 12.6605 44.6836 12.9244C44.4771 13.1883 44.1882 13.3754 43.8629 13.456L41.7909 13.972C39.9109 14.444 38.4429 15.912 37.9709 17.792L37.4549 19.864C37.3744 20.1893 37.1872 20.4782 36.9233 20.6847C36.6594 20.8912 36.334 21.0034 35.9989 21.0034C35.6638 21.0034 35.3384 20.8912 35.0745 20.6847C34.8106 20.4782 34.6235 20.1893 34.5429 19.864L34.0269 17.792C33.7961 16.8689 33.3188 16.0258 32.646 15.353C31.9731 14.6801 31.1301 14.2028 30.2069 13.972L28.1349 13.456C27.8097 13.3754 27.5208 13.1883 27.3143 12.9244C27.1078 12.6605 26.9956 12.3351 26.9956 12C26.9956 11.6649 27.1078 11.3395 27.3143 11.0756C27.5208 10.8117 27.8097 10.6246 28.1349 10.544L30.2069 10.028C31.1301 9.79722 31.9731 9.3199 32.646 8.64705C33.3188 7.9742 33.7961 7.13114 34.0269 6.208L34.5429 4.136C34.6241 3.81137 34.8115 3.52322 35.0754 3.31737C35.3392 3.11153 35.6643 2.99981 35.9989 3ZM32.9989 30C33.314 29.9998 33.621 30.0988 33.8766 30.283C34.1322 30.4671 34.3234 30.7271 34.4229 31.026L35.2109 33.392C35.5109 34.286 36.2109 34.99 37.1069 35.288L39.4729 36.078C39.7709 36.178 40.0298 36.3691 40.2133 36.6242C40.3968 36.8794 40.4955 37.1857 40.4955 37.5C40.4955 37.8143 40.3968 38.1206 40.2133 38.3758C40.0298 38.6309 39.7709 38.822 39.4729 38.922L37.1069 39.712C36.2129 40.012 35.5089 40.712 35.2109 41.608L34.4209 43.974C34.3209 44.2719 34.1298 44.5309 33.8747 44.7144C33.6195 44.8979 33.3132 44.9966 32.9989 44.9966C32.6846 44.9966 32.3783 44.8979 32.1232 44.7144C31.868 44.5309 31.6769 44.2719 31.5769 43.974L30.7869 41.608C30.6396 41.1666 30.3916 40.7655 30.0625 40.4364C29.7335 40.1073 29.3324 39.8593 28.8909 39.712L26.5249 38.922C26.227 38.822 25.968 38.6309 25.7845 38.3758C25.601 38.1206 25.5023 37.8143 25.5023 37.5C25.5023 37.1857 25.601 36.8794 25.7845 36.6242C25.968 36.3691 26.227 36.178 26.5249 36.078L28.8909 35.288C29.7849 34.988 30.4889 34.288 30.7869 33.392L31.5769 31.026C31.6764 30.7274 31.8672 30.4677 32.1224 30.2836C32.3776 30.0994 32.6842 30.0002 32.9989 30Z" fill="#B5EB92"/>
<defs>
<linearGradient id="paint0_linear_7423_12536" x1="-8.94049" y1="28.3271" x2="181.377" y2="120.23" gradientUnits="userSpaceOnUse">
<stop stop-color="#60A5FA"/>
<stop offset="1" stop-color="#FB7185"/>
</linearGradient>
</defs>
</svg>
