<svg width="132" height="26" viewBox="0 0 132 26" fill="none" xmlns="http://www.w3.org/2000/svg">
<rect width="26" height="26" rx="2.6" fill="white"/>
<g clip-path="url(#clip0_8307_18780)">
<path d="M20.967 6.83398C21.3069 6.83398 21.5191 7.202 21.3489 7.49614L19.566 10.578C19.4345 10.8052 19.192 10.9451 18.9295 10.9451H14.6035L16.7662 7.20148C16.8976 6.97406 17.1403 6.83398 17.403 6.83398H20.967Z" fill="#4A3CE1"/>
<path d="M16.2134 15.0562C16.5532 15.0562 16.7655 15.4241 16.5954 15.7182L14.7306 18.9435C14.6517 19.0799 14.5061 19.1639 14.3486 19.1639H10.1074C9.95001 19.1639 9.8045 19.08 9.72562 18.9438L7.47465 15.0562L5.22712 11.1658C5.14822 11.0292 5.14822 10.8609 5.22712 10.7244L7.34726 7.05448C7.42609 6.91803 7.57171 6.83398 7.7293 6.83398H11.4637C11.8034 6.83398 12.0156 7.20176 11.8457 7.4959L9.98058 10.7244C9.90169 10.8609 9.90169 11.0292 9.98058 11.1658L12.1007 14.8357C12.1796 14.9721 12.3252 15.0562 12.4828 15.0562H16.2134Z" fill="#4A3CE1"/>
</g>
<g clip-path="url(#clip1_8307_18780)">
<path d="M131.288 19.476H128.951L125.951 15.4278L124.745 16.7263V19.476H122.777V6.50195H124.745V14.3802L125.125 13.9438L125.19 13.8674L126.147 12.798L128.777 9.84095H131.005L127.581 13.671L127.245 14.042L131.288 19.476Z" fill="white"/>
<path d="M118.931 16.4316H120.811C120.735 17.0208 120.539 17.5555 120.235 18.0247C119.898 18.5376 119.431 18.9413 118.844 19.2359C118.257 19.5305 117.55 19.6724 116.746 19.6724C115.79 19.6724 114.964 19.4651 114.279 19.0395C113.605 18.6249 113.072 18.0356 112.703 17.3045C112.333 16.5516 112.148 15.6787 112.148 14.6966C112.148 13.7146 112.344 12.8416 112.714 12.0887C113.094 11.3467 113.616 10.7575 114.301 10.3428C114.974 9.91728 115.8 9.70996 116.735 9.70996C117.507 9.70996 118.202 9.85181 118.8 10.1355C119.398 10.4192 119.876 10.823 120.224 11.3358C120.539 11.7941 120.735 12.3288 120.811 12.9289H118.931C118.811 12.4706 118.583 12.0887 118.257 11.7723C117.887 11.4122 117.376 11.2267 116.768 11.2267C116.246 11.2267 115.779 11.3795 115.387 11.6523C114.996 11.936 114.692 12.3288 114.474 12.8525C114.268 13.3545 114.159 13.9655 114.159 14.653C114.159 15.3404 114.268 15.9733 114.474 16.4862C114.681 17.0099 114.985 17.4137 115.377 17.7083C115.768 17.992 116.235 18.1338 116.768 18.1338C117.137 18.1338 117.485 18.0574 117.779 17.9156C118.083 17.7628 118.344 17.5555 118.539 17.2718C118.713 17.0427 118.844 16.7589 118.931 16.4316Z" fill="white"/>
<path d="M109.867 11.3904C109.639 10.9757 109.346 10.6484 108.976 10.4083C108.607 10.1574 108.183 9.98278 107.726 9.87366C106.607 9.60087 105.433 9.66634 104.487 10.0046C103.944 10.201 103.476 10.4956 103.107 10.8885C102.77 11.2267 102.52 11.6414 102.357 12.1215L104.183 12.3834C104.324 12.0669 104.553 11.7832 104.868 11.5541C105.237 11.2704 105.737 11.1285 106.357 11.1285C106.944 11.1285 107.411 11.2813 107.737 11.5868C108.063 11.8923 108.237 12.3288 108.237 12.8744C108.237 13.2017 108.118 13.4309 107.889 13.5727C107.705 13.6928 107.422 13.7801 107.02 13.8346C106.65 13.8783 106.183 13.9328 105.596 13.9983C105.118 14.0529 104.661 14.1292 104.216 14.2493C103.781 14.3584 103.39 14.5221 103.042 14.7294C102.716 14.9367 102.455 15.2095 102.259 15.5478C102.074 15.886 101.977 16.3225 101.977 16.8572C101.977 17.4682 102.107 17.992 102.379 18.4066C102.65 18.8213 103.031 19.1377 103.498 19.356C103.976 19.5742 104.52 19.6833 105.129 19.6833C105.618 19.6833 106.052 19.6069 106.411 19.476C106.781 19.3341 107.085 19.1596 107.324 18.9304C107.563 18.7122 107.748 18.4612 107.889 18.1993L107.944 18.1011H108.324V19.476H110.204V12.9617C110.204 12.3288 110.085 11.805 109.867 11.3904ZM108.237 16.0715C108.237 16.4753 108.128 16.8572 107.922 17.1954C107.726 17.5337 107.433 17.8174 107.052 18.0247C106.683 18.2211 106.237 18.3303 105.737 18.3303C105.205 18.3303 104.759 18.1993 104.422 17.9593C104.053 17.6974 103.857 17.3155 103.857 16.8135C103.857 16.4644 103.955 16.1697 104.15 15.9515C104.324 15.7333 104.574 15.5587 104.879 15.4386C105.172 15.3295 105.498 15.2422 105.868 15.1877L106.4 15.1113C106.628 15.0786 106.835 15.0458 107.052 15.0131C107.259 14.9694 107.455 14.9258 107.618 14.8822C107.813 14.8167 107.9 14.773 107.922 14.7403L108.237 14.4893V16.0715Z" fill="white"/>
<path d="M93.7913 15.9197C93.7913 16.6617 93.6065 17.3164 93.2261 17.8729C92.8565 18.4403 92.3022 18.8877 91.5849 19.2041C90.8566 19.5206 89.9654 19.6843 88.9328 19.6843C87.9003 19.6843 87.0525 19.5206 86.3134 19.2151C85.596 18.9095 85.02 18.4512 84.6178 17.8729C84.2483 17.3273 84.0309 16.6726 83.9766 15.9088H85.9765C86.0308 16.3344 86.183 16.7054 86.4221 17C86.6938 17.3382 87.0525 17.5892 87.4873 17.7529C87.9111 17.9166 88.3894 17.9929 88.922 17.9929C89.4545 17.9929 89.9545 17.9057 90.3675 17.742C90.7914 17.5674 91.1392 17.3273 91.3784 17.0218C91.6283 16.7054 91.7588 16.3234 91.7696 15.8979C91.7588 15.5051 91.6392 15.1668 91.411 14.9158C91.1936 14.6649 90.8893 14.4466 90.5088 14.283C90.1393 14.1302 89.7154 13.9883 89.2263 13.8574L87.7155 13.4646C86.6503 13.1918 85.8026 12.7771 85.1939 12.2315C84.607 11.686 84.3135 10.9767 84.3135 10.0601C84.3135 9.31811 84.52 8.66341 84.9113 8.10691C85.3243 7.55041 85.8786 7.10303 86.5851 6.7975C87.2916 6.48106 88.1068 6.31738 89.0089 6.31738C89.911 6.31738 90.7262 6.48106 91.411 6.7975C92.0957 7.10303 92.6283 7.5395 93.0196 8.096C93.3674 8.58702 93.563 9.15443 93.6065 9.78732H91.6501C91.5523 9.24173 91.2805 8.80526 90.824 8.48882C90.3458 8.15055 89.7263 7.98688 88.9763 7.98688C88.4437 7.98688 87.9872 8.06326 87.6068 8.22694C87.2155 8.39061 86.9112 8.61976 86.7047 8.90346C86.4873 9.19808 86.3786 9.53635 86.3786 9.91826C86.3786 10.2238 86.4438 10.5075 86.596 10.7475C86.7373 10.9658 86.9329 11.1622 87.1829 11.3259C87.4112 11.4677 87.672 11.5878 87.9546 11.6969C88.2263 11.7951 88.5089 11.8715 88.7807 11.9369L90.0306 12.2534C90.5197 12.3734 90.9979 12.5262 91.4436 12.7226C91.9001 12.9081 92.3022 13.159 92.6609 13.4537C93.0087 13.7374 93.2913 14.0865 93.4869 14.4903C93.6935 14.894 93.7913 15.3741 93.7913 15.9197Z" fill="white"/>
<path d="M75.3892 15.1113H82.3345V14.5766C82.3345 13.7255 82.2149 12.9835 81.9758 12.3724C81.7475 11.7614 81.4323 11.2594 81.0302 10.8666C80.628 10.4738 80.1607 10.1792 79.6389 9.99367C79.1172 9.80817 78.552 9.70996 77.9651 9.70996C77.0521 9.70996 76.2478 9.91728 75.5739 10.3319C74.9001 10.7575 74.3675 11.3467 73.9871 12.0887C73.6175 12.8416 73.4219 13.7146 73.4219 14.7185C73.4219 15.7223 73.6175 16.6171 73.9871 17.3591C74.3675 18.1011 74.9001 18.6685 75.5848 19.0722C76.2804 19.4651 77.1173 19.6724 78.0847 19.6724C78.8346 19.6724 79.5085 19.5633 80.0846 19.3341C80.6498 19.105 81.128 18.7885 81.4867 18.3739C81.8127 18.0247 82.041 17.6101 82.1823 17.1409L80.3454 16.9335C80.2367 17.1845 80.0846 17.4027 79.8998 17.5773C79.6716 17.7956 79.4107 17.9483 79.1064 18.0574C78.8129 18.1666 78.476 18.2102 78.1173 18.2102C77.5738 18.2102 77.0956 18.0902 76.6826 17.861C76.2696 17.621 75.9435 17.2718 75.7152 16.8353C75.5305 16.4752 75.4 16.0497 75.3783 15.5696V15.1113H75.3892ZM75.4 13.5182C75.4435 13.169 75.5413 12.8416 75.7044 12.5361C75.9217 12.1215 76.2369 11.7941 76.6282 11.5431C77.0195 11.2922 77.476 11.1612 77.9977 11.1612C78.476 11.1612 78.9107 11.2813 79.2694 11.4995C79.6389 11.7177 79.9324 12.0233 80.1389 12.4161C80.3454 12.798 80.4541 13.2235 80.4541 13.7146V13.9001H75.4V13.5182Z" fill="white"/>
<path d="M70.0088 16.4326H71.8892C71.8131 17.0218 71.6174 17.5565 71.3131 18.0257C70.9762 18.5385 70.5088 18.9423 69.9219 19.2369C69.3349 19.5315 68.6285 19.6734 67.8242 19.6734C66.8677 19.6734 66.0416 19.466 65.3569 19.0405C64.683 18.6258 64.1504 18.0366 63.7809 17.3055C63.4113 16.5526 63.2266 15.6797 63.2266 14.6976C63.2266 13.7155 63.4222 12.8426 63.7918 12.0897C64.1722 11.3477 64.7047 10.7585 65.3786 10.3438C66.0525 9.91826 66.8785 9.71094 67.8133 9.71094C68.585 9.71094 69.2806 9.85279 69.8784 10.1365C70.4762 10.4202 70.9544 10.8239 71.3022 11.3368C71.6174 11.7951 71.8131 12.3298 71.8892 12.9299H70.0088C69.8893 12.4716 69.661 12.0897 69.3349 11.7733C68.9654 11.4132 68.4546 11.2277 67.8459 11.2277C67.3242 11.2277 66.8568 11.3804 66.4655 11.6532C66.0742 11.9369 65.7699 12.3298 65.5525 12.8535C65.346 13.3555 65.2373 13.9665 65.2373 14.654C65.2373 15.3414 65.346 15.9743 65.5525 16.4871C65.759 17.0109 66.0634 17.4146 66.4547 17.7092C66.8459 17.9929 67.3133 18.1348 67.8459 18.1348C68.2154 18.1348 68.5632 18.0584 68.8567 17.9166C69.161 17.7638 69.4219 17.5565 69.6175 17.2728C69.7914 17.0436 69.9219 16.7599 70.0088 16.4326Z" fill="white"/>
<path d="M61.2271 9.8418H59.2598V19.4769H61.2271V9.8418Z" fill="white"/>
<path d="M56.6747 12.0669C56.3051 11.314 55.7725 10.7357 55.0878 10.321C54.403 9.91728 53.5879 9.70996 52.6531 9.70996C51.7184 9.70996 50.9032 9.91728 50.2185 10.321C49.5337 10.7357 49.0011 11.3249 48.6207 12.0669C48.2512 12.8089 48.0664 13.6927 48.0664 14.6966C48.0664 15.7005 48.2512 16.5844 48.6207 17.3264C49.0011 18.0574 49.5337 18.6467 50.2185 19.0504C50.9032 19.4651 51.7184 19.6724 52.6531 19.6724C53.5879 19.6724 54.403 19.4651 55.0878 19.0504C55.7725 18.6467 56.3051 18.0684 56.6747 17.3264C57.0551 16.5734 57.2507 15.6896 57.2507 14.6966C57.2507 13.7037 57.0551 12.8089 56.6747 12.0669ZM54.9682 16.4098C54.7835 16.9335 54.49 17.37 54.1096 17.6755C53.7292 18.0029 53.2401 18.1666 52.664 18.1666C52.0879 18.1666 51.588 18.0029 51.1967 17.6864C50.8163 17.37 50.5228 16.9335 50.338 16.4098C50.1533 15.8969 50.0663 15.3186 50.0663 14.6857C50.0663 14.0528 50.1533 13.4745 50.338 12.9617C50.5228 12.427 50.8163 12.0014 51.1967 11.685C51.588 11.3576 52.0879 11.194 52.664 11.194C53.2401 11.194 53.7183 11.3576 54.1096 11.685C54.49 12.0014 54.7835 12.4379 54.9682 12.9617C55.153 13.4745 55.2399 14.0528 55.2399 14.6857C55.2399 15.3186 55.153 15.8969 54.9682 16.4098Z" fill="white"/>
<path d="M47.8146 6.50195L43.2605 19.476H40.5541L36 6.50195H38.239L41.6628 16.879L41.7062 17.01H42.1192L45.5756 6.50195H47.8146Z" fill="white"/>
<path fillRule="evenodd" clipRule="evenodd" d="M62.2709 6.4375L61.3144 8.09608H59.3906L60.3471 6.4375H62.2709Z" fill="white"/>
<path fillRule="evenodd" clipRule="evenodd" d="M98.4977 11.2923V16.6499C98.4977 17.0209 98.552 17.2937 98.6607 17.4792C98.7803 17.6866 98.9542 17.8393 99.1498 17.8939C99.465 18.0248 99.8781 18.0357 100.182 17.9703C100.226 17.9703 100.258 17.9703 100.291 17.9484L100.606 19.4433C100.508 19.4652 100.4 19.4979 100.258 19.5306C100.008 19.5743 99.7368 19.607 99.4324 19.6179C98.8781 19.6288 98.3673 19.5525 97.9325 19.367C97.4869 19.1706 97.1499 18.8978 96.8891 18.5158C96.6391 18.123 96.5195 17.6429 96.5195 17.0428V11.2923H95.0957V9.8301H96.5195V7.44043H98.4977V9.8301H101.519L100.682 11.2814H98.4977V11.2923Z" fill="white"/>
</g>
<defs>
<clipPath id="clip0_8307_18780">
<rect width="16.632" height="12.3299" fill="white" transform="translate(5.09961 6.83496)"/>
</clipPath>
<clipPath id="clip1_8307_18780">
<rect width="95.2886" height="13.3669" fill="white" transform="translate(36 6.31641)"/>
</clipPath>
</defs>
</svg>
