<svg width="64" height="64" viewBox="0 0 64 64" fill="none" xmlns="http://www.w3.org/2000/svg">
<rect y="0.000976562" width="64" height="64.0001" rx="6.4" fill="#4A3CE1"/>
<g clip-path="url(#clip0_7423_13853)">
<path d="M51.6089 16.8262C52.4454 16.8262 52.9678 17.7321 52.549 18.4561L48.1601 26.0422C47.8366 26.6014 47.2394 26.9458 46.5933 26.9458H35.9448L41.2685 17.7308C41.5919 17.171 42.1893 16.8262 42.8358 16.8262H51.6089Z" fill="white"/>
<path d="M39.9079 37.0654C40.7443 37.0654 41.2667 37.9711 40.8481 38.6951L36.2578 46.6343C36.0637 46.97 35.7053 47.1767 35.3176 47.1767H24.8778C24.4902 47.1767 24.1321 46.9702 23.9379 46.6349L18.397 37.0654L12.8646 27.4891C12.6704 27.1529 12.6704 26.7387 12.8646 26.4025L18.0835 17.3689C18.2775 17.0331 18.636 16.8262 19.0239 16.8262H28.2162C29.0524 16.8262 29.5749 17.7315 29.1566 18.4555L24.5655 26.4025C24.3713 26.7387 24.3713 27.1529 24.5655 27.4891L29.7843 36.5227C29.9784 36.8585 30.3368 37.0654 30.7247 37.0654H39.9079Z" fill="white"/>
</g>
<defs>
<clipPath id="clip0_7423_13853">
<rect width="40.9404" height="30.3505" fill="white" transform="translate(12.5518 16.8262)"/>
</clipPath>
</defs>
</svg>
