<svg width="20" height="21" viewBox="0 0 20 21" fill="none" xmlns="http://www.w3.org/2000/svg">
<g id="Social Icons" clipPath="url(#clip0_100_1038)">
<path id="Vector" d="M10 0.902344C4.4772 0.902344 0 5.37954 0 10.9023C0 15.5919 3.2288 19.5271 7.5844 20.6079V13.9583H5.5224V10.9023H7.5844V9.58554C7.5844 6.18194 9.1248 4.60434 12.4664 4.60434C13.1 4.60434 14.1932 4.72874 14.6404 4.85274V7.62274C14.4044 7.59794 13.9944 7.58554 13.4852 7.58554C11.8456 7.58554 11.212 8.20674 11.212 9.82154V10.9023H14.4784L13.9172 13.9583H11.212V20.8291C16.1636 20.2311 20.0004 16.0151 20.0004 10.9023C20 5.37954 15.5228 0.902344 10 0.902344Z" fill="white"/>
</g>
<defs>
<clipPath id="clip0_100_1038">
<rect width="20" height="20" fill="white" transform="translate(0 0.902344)"/>
</clipPath>
</defs>
</svg>
