<svg width="20" height="21" viewBox="0 0 20 21" fill="none" xmlns="http://www.w3.org/2000/svg">
<g id="Social Icons" clipPath="url(#clip0_100_1039)">
<path id="Vector" d="M10 2.70312C12.6719 2.70312 12.9883 2.71484 14.0391 2.76172C15.0156 2.80469 15.543 2.96875 15.8945 3.10547C16.3594 3.28516 16.6953 3.50391 17.043 3.85156C17.3945 4.20313 17.6094 4.53516 17.7891 5C17.9258 5.35156 18.0898 5.88281 18.1328 6.85547C18.1797 7.91016 18.1914 8.22656 18.1914 10.8945C18.1914 13.5664 18.1797 13.8828 18.1328 14.9336C18.0898 15.9102 17.9258 16.4375 17.7891 16.7891C17.6094 17.2539 17.3906 17.5898 17.043 17.9375C16.6914 18.2891 16.3594 18.5039 15.8945 18.6836C15.543 18.8203 15.0117 18.9844 14.0391 19.0273C12.9844 19.0742 12.668 19.0859 10 19.0859C7.32813 19.0859 7.01172 19.0742 5.96094 19.0273C4.98438 18.9844 4.45703 18.8203 4.10547 18.6836C3.64063 18.5039 3.30469 18.2852 2.95703 17.9375C2.60547 17.5859 2.39063 17.2539 2.21094 16.7891C2.07422 16.4375 1.91016 15.9063 1.86719 14.9336C1.82031 13.8789 1.80859 13.5625 1.80859 10.8945C1.80859 8.22266 1.82031 7.90625 1.86719 6.85547C1.91016 5.87891 2.07422 5.35156 2.21094 5C2.39063 4.53516 2.60938 4.19922 2.95703 3.85156C3.30859 3.5 3.64063 3.28516 4.10547 3.10547C4.45703 2.96875 4.98828 2.80469 5.96094 2.76172C7.01172 2.71484 7.32813 2.70312 10 2.70312ZM10 0.902344C7.28516 0.902344 6.94531 0.914062 5.87891 0.960938C4.81641 1.00781 4.08594 1.17969 3.45313 1.42578C2.79297 1.68359 2.23438 2.02344 1.67969 2.58203C1.12109 3.13672 0.78125 3.69531 0.523438 4.35156C0.277344 4.98828 0.105469 5.71484 0.0585938 6.77734C0.0117188 7.84766 0 8.1875 0 10.9023C0 13.6172 0.0117188 13.957 0.0585938 15.0234C0.105469 16.0859 0.277344 16.8164 0.523438 17.4492C0.78125 18.1094 1.12109 18.668 1.67969 19.2227C2.23438 19.7773 2.79297 20.1211 3.44922 20.375C4.08594 20.6211 4.8125 20.793 5.875 20.8398C6.94141 20.8867 7.28125 20.8984 9.99609 20.8984C12.7109 20.8984 13.0508 20.8867 14.1172 20.8398C15.1797 20.793 15.9102 20.6211 16.543 20.375C17.1992 20.1211 17.7578 19.7773 18.3125 19.2227C18.8672 18.668 19.2109 18.1094 19.4648 17.4531C19.7109 16.8164 19.8828 16.0898 19.9297 15.0273C19.9766 13.9609 19.9883 13.6211 19.9883 10.9063C19.9883 8.19141 19.9766 7.85156 19.9297 6.78516C19.8828 5.72266 19.7109 4.99219 19.4648 4.35938C19.2188 3.69531 18.8789 3.13672 18.3203 2.58203C17.7656 2.02734 17.207 1.68359 16.5508 1.42969C15.9141 1.18359 15.1875 1.01172 14.125 0.964844C13.0547 0.914063 12.7148 0.902344 10 0.902344Z" fill="white" fill-opacity="0.3"/>
<path id="Vector_2" d="M10 5.76562C7.16406 5.76562 4.86328 8.06641 4.86328 10.9023C4.86328 13.7383 7.16406 16.0391 10 16.0391C12.8359 16.0391 15.1367 13.7383 15.1367 10.9023C15.1367 8.06641 12.8359 5.76562 10 5.76562ZM10 14.2344C8.16016 14.2344 6.66797 12.7422 6.66797 10.9023C6.66797 9.0625 8.16016 7.57031 10 7.57031C11.8398 7.57031 13.332 9.0625 13.332 10.9023C13.332 12.7422 11.8398 14.2344 10 14.2344Z" fill="white" fill-opacity="0.3"/>
<path id="Vector_3" d="M16.5391 5.5625C16.5391 6.22657 16 6.76172 15.3398 6.76172C14.6758 6.76172 14.1406 6.22266 14.1406 5.5625C14.1406 4.89844 14.6797 4.36328 15.3398 4.36328C16 4.36328 16.5391 4.90234 16.5391 5.5625Z" fill="white" fill-opacity="0.3"/>
</g>
<defs>
<clipPath id="clip0_100_1039">
<rect width="20" height="20" fill="white" transform="translate(0 0.902344)"/>
</clipPath>
</defs>
</svg>
