<svg width="20" height="21" viewBox="0 0 20 21" fill="none" xmlns="http://www.w3.org/2000/svg">
<g id="Social Icons" clipPath="url(#clip0_100_1037)">
<path id="Vector" d="M18.5195 0.902344H1.47656C0.660156 0.902344 0 1.54688 0 2.34375V19.457C0 20.2539 0.660156 20.9023 1.47656 20.9023H18.5195C19.3359 20.9023 20 20.2539 20 19.4609V2.34375C20 1.54688 19.3359 0.902344 18.5195 0.902344ZM5.93359 17.9453H2.96484V8.39844H5.93359V17.9453ZM4.44922 7.09766C3.49609 7.09766 2.72656 6.32812 2.72656 5.37891C2.72656 4.42969 3.49609 3.66016 4.44922 3.66016C5.39844 3.66016 6.16797 4.42969 6.16797 5.37891C6.16797 6.32422 5.39844 7.09766 4.44922 7.09766ZM17.043 17.9453H14.0781V13.3047C14.0781 12.1992 14.0586 10.7734 12.5352 10.7734C10.9922 10.7734 10.7578 11.9805 10.7578 13.2266V17.9453H7.79688V8.39844H10.6406V9.70312H10.6797C11.0742 8.95312 12.043 8.16016 13.4844 8.16016C16.4883 8.16016 17.043 10.1367 17.043 12.707V17.9453Z" fill="white" fill-opacity="0.3"/>
</g>
<defs>
<clipPath id="clip0_100_1037">
<rect width="20" height="20" fill="white" transform="translate(0 0.902344)"/>
</clipPath>
</defs>
</svg>
