<svg xmlns="http://www.w3.org/2000/svg" width="18" height="19" viewBox="0 0 18 19" fill="none">
  <path fillRule="evenodd" clipRule="evenodd" d="M0 9.90234C0 4.93157 4.02923 0.902344 9 0.902344C13.9708 0.902344 18 4.93157 18 9.90234C18 14.8731 13.9708 18.9023 9 18.9023C4.02923 18.9023 0 14.8731 0 9.90234ZM12.3323 8.22788C12.3877 8.15408 12.4278 8.06996 12.4502 7.98045C12.4726 7.89094 12.4769 7.79786 12.4628 7.70667C12.4487 7.61548 12.4165 7.52803 12.3682 7.44945C12.3198 7.37087 12.2562 7.30275 12.1812 7.2491C12.1061 7.19544 12.0211 7.15734 11.9311 7.13702C11.8411 7.1167 11.7479 7.11457 11.6571 7.13077C11.5662 7.14697 11.4795 7.18116 11.4021 7.23134C11.3247 7.28152 11.258 7.34667 11.2062 7.42296L8.21908 11.6045L6.72 10.1054C6.58876 9.98313 6.41518 9.91656 6.23583 9.91972C6.05647 9.92288 5.88535 9.99554 5.7585 10.1224C5.63166 10.2492 5.559 10.4204 5.55584 10.5997C5.55267 10.7791 5.61925 10.9526 5.74154 11.0839L7.81846 13.1608C7.88953 13.2318 7.9752 13.2865 8.06953 13.3211C8.16385 13.3557 8.26458 13.3693 8.3647 13.3611C8.46483 13.3528 8.56196 13.3228 8.64935 13.2733C8.73674 13.2237 8.81229 13.1557 8.87077 13.074L12.3323 8.22788Z" fill="#16A34A"/>
</svg>