<svg width="48" height="49" viewBox="0 0 48 49" fill="none" xmlns="http://www.w3.org/2000/svg">
<rect y="0.902344" width="48" height="48" rx="8" fill="#EDE1FE"/>
<path d="M27 23.4023C27 24.198 26.6839 24.9611 26.1213 25.5237C25.5587 26.0863 24.7956 26.4023 24 26.4023C23.2044 26.4023 22.4413 26.0863 21.8787 25.5237C21.3161 24.9611 21 24.198 21 23.4023C21 22.6067 21.3161 21.8436 21.8787 21.281C22.4413 20.7184 23.2044 20.4023 24 20.4023C24.7956 20.4023 25.5587 20.7184 26.1213 21.281C26.6839 21.8436 27 22.6067 27 23.4023Z" stroke="#8639F8" strokeWidth="1.5" stroke-linecap="round" stroke-linejoin="round"/>
<path d="M31.5 23.4023C31.5 30.5443 24 34.6523 24 34.6523C24 34.6523 16.5 30.5443 16.5 23.4023C16.5 21.4132 17.2902 19.5056 18.6967 18.099C20.1032 16.6925 22.0109 15.9023 24 15.9023C25.9891 15.9023 27.8968 16.6925 29.3033 18.099C30.7098 19.5056 31.5 21.4132 31.5 23.4023Z" stroke="#8639F8" strokeWidth="1.5" stroke-linecap="round" stroke-linejoin="round"/>
</svg>
