<svg width="48" height="49" viewBox="0 0 48 49" fill="none" xmlns="http://www.w3.org/2000/svg">
<rect y="0.902344" width="48" height="48" rx="8" fill="#EDE1FE"/>
<path d="M22.5 18.9023C21.0166 18.9023 19.5666 19.3422 18.3332 20.1663C17.0999 20.9904 16.1386 22.1618 15.5709 23.5322C15.0032 24.9027 14.8547 26.4107 15.1441 27.8655C15.4335 29.3204 16.1478 30.6568 17.1967 31.7056C18.2456 32.7545 19.582 33.4688 21.0368 33.7582C22.4917 34.0476 23.9997 33.8991 25.3701 33.3314C26.7406 32.7638 27.9119 31.8025 28.736 30.5691C29.5601 29.3358 30 27.8857 30 26.4023H22.5V18.9023Z" stroke="#8639F8" strokeWidth="1.5" stroke-linecap="round" stroke-linejoin="round"/>
<path d="M25.5 23.4023H33C33 21.4132 32.2098 19.5056 30.8033 18.099C29.3968 16.6925 27.4891 15.9023 25.5 15.9023V23.4023Z" stroke="#8639F8" strokeWidth="1.5" stroke-linecap="round" stroke-linejoin="round"/>
</svg>
