<svg width="135" height="27" viewBox="0 0 135 27" fill="none" xmlns="http://www.w3.org/2000/svg">
<g id="OSD_Logo_Gradient-Navy_RGB 2">
<g id="Group">
<path id="Vector" d="M47.939 14.1999C47.939 18.5956 44.5461 21.9238 40.1513 21.9238C35.7564 21.9238 32.3845 18.5956 32.3845 14.1999C32.3845 9.80418 35.7556 6.47595 40.1513 6.47595C44.547 6.47595 47.939 9.80418 47.939 14.1999ZM35.4559 14.1999C35.4559 16.9952 37.4616 19.0219 40.1504 19.0219C42.8392 19.0219 44.8448 16.9952 44.8448 14.1999C44.8448 11.4045 42.8392 9.37789 40.1504 9.37789C37.4616 9.37789 35.4559 11.4045 35.4559 14.1999Z" fill="white"/>
<path id="Vector_2" d="M61.4669 17.2512C61.4669 20.7297 58.309 21.9238 55.7914 21.9238C51.4175 21.9238 49.625 19.449 49.2834 16.8668H52.3557C52.761 18.3388 53.6573 19.0856 55.7696 19.0856C57.4983 19.0856 58.3937 18.4453 58.3937 17.3787C58.3937 16.3121 57.3481 16.1199 54.7239 15.5434C52.057 14.9887 49.6669 14.1134 49.6669 11.1695C49.6669 8.03261 52.4623 6.47507 55.2996 6.47507C59.3109 6.47507 60.975 8.63012 61.3166 11.1049H58.2225C57.9028 10.0592 57.1559 9.31236 55.3206 9.31236C53.4852 9.31236 52.7392 10.0802 52.7392 11.0402C52.7392 11.9147 53.4861 12.1287 55.449 12.555C59.4393 13.4084 61.466 14.2837 61.466 17.2494L61.4669 17.2512Z" fill="white"/>
<g id="Group_2">
<path id="Vector_3" d="M63.4515 6.7319H68.8501C73.203 6.7319 76.4884 9.91163 76.4884 14.1999C76.4884 18.4881 73.2021 21.6679 68.8501 21.6679H63.4515V6.7319ZM68.8501 18.7659C71.5389 18.7659 73.438 16.8878 73.438 14.1999C73.438 11.512 71.5389 9.63384 68.8501 9.63384H66.5028V18.7659H68.8501Z" fill="white"/>
<path id="Vector_4" d="M78.0679 15.8221C78.0679 12.3017 80.6073 9.67664 84.1915 9.67664C88.0744 9.67664 90.4863 12.7279 90.1875 16.5899H81.1829C81.3751 18.468 82.6549 19.4062 84.2343 19.4062C85.4074 19.4062 86.4321 18.8725 86.8374 17.9343H89.9953C89.1209 20.7078 86.7737 21.9247 84.2552 21.9247C80.5854 21.9247 78.0679 19.3215 78.0679 15.8221ZM86.944 14.3493C86.6025 13.0686 85.6424 12.1942 84.1705 12.1942C82.6986 12.1942 81.7167 13.0905 81.3323 14.3493H86.944Z" fill="white"/>
<path id="Vector_5" d="M92.2568 9.93259H95.3082V11.5329C96.1616 10.3379 97.3357 9.67664 98.957 9.67664C101.603 9.67664 103.203 11.4264 103.203 14.3065V21.6679H100.152V14.9677C100.152 13.4312 99.5763 12.5777 97.9541 12.5777C96.2254 12.5777 95.3082 13.5805 95.3082 15.5006V21.667H92.2568V9.93171V9.93259Z" fill="white"/>
<path id="Vector_6" d="M106.531 17.1446V12.8136H104.44V9.93259H106.531V7.39318L109.583 6.7319V9.93259H113.936V12.8136H109.583V16.9743C109.583 18.3615 110.244 19.0865 111.461 19.0865C112.144 19.0865 112.955 18.8515 113.915 18.5109L114.427 20.9856C113.786 21.4128 112.335 21.9247 110.927 21.9247C108.58 21.9247 106.531 20.5165 106.531 17.1455V17.1446Z" fill="white"/>
<path id="Vector_7" d="M115.536 15.8002C115.536 12.1732 117.862 9.67664 120.87 9.67664C122.534 9.67664 123.772 10.4445 124.583 11.5757V9.93259H127.634L127.613 21.6679H124.562L124.583 20.0885C123.75 21.1979 122.534 21.9238 120.891 21.9238C117.819 21.9238 115.535 19.4062 115.535 15.8002H115.536ZM124.584 15.8002C124.584 13.8802 123.282 12.5786 121.575 12.5786C119.868 12.5786 118.609 13.8802 118.609 15.8002C118.609 17.7203 119.89 19.0219 121.575 19.0219C123.26 19.0219 124.584 17.7413 124.584 15.8002Z" fill="white"/>
<path id="Vector_8" d="M130.089 5.23813H133.14V21.6679H130.089V5.23813Z" fill="white"/>
</g>
</g>
<g id="Group_3">
<path id="Vector_9" d="M18.8794 11.9802C19.2542 11.9802 19.5853 12.1706 19.7818 12.4597C19.5879 12.1671 19.2559 11.9732 18.8794 11.9732C18.5029 11.9732 18.171 12.1671 17.9771 12.4597C18.1727 12.1706 18.5047 11.9802 18.8794 11.9802Z" fill="url(#paint0_linear_1_76)"/>
<path id="Vector_10" d="M21.0388 2.66638C21.0388 2.66638 21.0344 2.66638 21.0327 2.66638C21.0301 2.66638 21.0275 2.66638 21.0248 2.66638C18.4094 2.66638 16.1303 4.10687 14.9371 6.23746C14.9371 6.23746 14.9371 6.23746 14.9371 6.23658L12.4003 10.9171C12.9183 11.4805 13.2354 12.2326 13.2354 13.0564C13.2354 14.8017 11.815 16.2221 10.0696 16.2221C8.32428 16.2221 6.90389 14.8017 6.90389 13.0564C6.90389 11.311 8.32428 9.89064 10.0696 9.89064C10.2382 9.89064 10.4033 9.90462 10.5649 9.92996L13.5263 4.46764C12.2893 3.34862 10.6497 2.66725 8.85016 2.66725C4.99955 2.66725 1.87748 5.78845 1.87573 9.63906C1.87573 9.63993 1.87573 9.64081 1.87573 9.64168C1.87573 10.8053 2.16138 11.9024 2.66542 12.8677L2.75627 13.0363L8.3435 23.3713C9.15416 24.8712 11.3066 24.8729 12.1199 23.3748L14.5151 18.9625L16.554 15.2018C16.0334 14.6375 15.7145 13.8836 15.7145 13.0573C15.7145 11.3119 17.1349 9.89152 18.8803 9.89152C20.6256 9.89152 22.046 11.3119 22.046 13.0573C22.046 14.8026 20.6256 16.223 18.8803 16.223C18.7143 16.223 18.5509 16.2099 18.3919 16.1854L16.1242 20.368L17.756 23.3748C18.5693 24.8738 20.7217 24.872 21.5324 23.3713L26.965 13.3228C27.6297 12.2545 28.0141 10.9939 28.0141 9.64256C28.0141 5.79107 24.892 2.66813 21.0397 2.66813L21.0388 2.66638Z" fill="url(#paint1_linear_1_76)"/>
<path id="Vector_11" d="M18.8794 14.1352C19.4761 14.1352 19.9609 13.6504 19.9609 13.0538C19.9609 12.8336 19.8945 12.6292 19.7818 12.4589C19.5861 12.1697 19.2542 11.9793 18.8794 11.9793C18.5047 11.9793 18.1736 12.1697 17.9771 12.4589C17.8635 12.6301 17.798 12.8345 17.798 13.0538C17.798 13.6504 18.2828 14.1352 18.8794 14.1352Z" fill="url(#paint2_linear_1_76)"/>
<path id="Vector_12" d="M8.98645 13.0573C8.98645 13.6539 9.47127 14.1387 10.0679 14.1387C10.6645 14.1387 11.1494 13.6539 11.1494 13.0573C11.1494 12.4606 10.6645 11.9758 10.0679 11.9758C9.47127 11.9758 8.98645 12.4606 8.98645 13.0573Z" fill="url(#paint3_linear_1_76)"/>
</g>
</g>
<defs>
<linearGradient id="paint0_linear_1_76" x1="17.9771" y1="12.2169" x2="19.7809" y2="12.2169" gradientUnits="userSpaceOnUse">
<stop stop-color="#8639F8"/>
<stop offset="0.16" stop-color="#8F3CF4"/>
<stop offset="0.42" stop-color="#A947EB"/>
<stop offset="0.75" stop-color="#D359DD"/>
<stop offset="1" stop-color="#F768D1"/>
</linearGradient>
<linearGradient id="paint1_linear_1_76" x1="2.39812" y1="25.9797" x2="23.9163" y2="1.15601" gradientUnits="userSpaceOnUse">
<stop offset="0.19" stop-color="#8639F8"/>
<stop offset="0.3" stop-color="#8F3CF4"/>
<stop offset="0.5" stop-color="#A947EB"/>
<stop offset="0.74" stop-color="#D359DD"/>
<stop offset="0.92" stop-color="#F768D1"/>
</linearGradient>
<linearGradient id="paint2_linear_1_76" x1="5.4119" y1="28.5907" x2="26.9309" y2="3.76703" gradientUnits="userSpaceOnUse">
<stop offset="0.15" stop-color="#8639F8"/>
<stop offset="0.28" stop-color="#8F3CF4"/>
<stop offset="0.48" stop-color="#A947EB"/>
<stop offset="0.75" stop-color="#D359DD"/>
<stop offset="0.94" stop-color="#F768D1"/>
</linearGradient>
<linearGradient id="paint3_linear_1_76" x1="0.380239" y1="24.2326" x2="21.8993" y2="-0.591061" gradientUnits="userSpaceOnUse">
<stop stop-color="#8639F8"/>
<stop offset="0.14" stop-color="#8F3CF4"/>
<stop offset="0.36" stop-color="#A947EB"/>
<stop offset="0.65" stop-color="#D359DD"/>
<stop offset="0.87" stop-color="#F768D1"/>
</linearGradient>
</defs>
</svg>
