<svg width="14" height="18" viewBox="0 0 14 18" fill="none" xmlns="http://www.w3.org/2000/svg">
<path fillRule="evenodd" clipRule="evenodd" d="M2.05051 2.55036C3.36333 1.23754 5.14389 0.5 7.0005 0.5C8.85711 0.5 10.6377 1.23754 11.9505 2.55036C13.2633 3.86318 14.0009 5.64375 14.0009 7.50036C14.0009 9.35697 13.2633 11.1375 11.9505 12.4504L7.0005 17.4004L2.05051 12.4504C1.40042 11.8003 0.884739 11.0286 0.532912 10.1793C0.181084 9.32998 0 8.41967 0 7.50036C0 6.58104 0.181084 5.67073 0.532912 4.82141C0.884739 3.97208 1.40042 3.20038 2.05051 2.55036ZM7.0005 9.50036C7.53094 9.50036 8.03965 9.28964 8.41472 8.91457C8.78979 8.5395 9.00051 8.03079 9.00051 7.50036C9.00051 6.96992 8.78979 6.46122 8.41472 6.08614C8.03965 5.71107 7.53094 5.50036 7.0005 5.50036C6.47007 5.50036 5.96136 5.71107 5.58629 6.08614C5.21122 6.46122 5.0005 6.96992 5.0005 7.50036C5.0005 8.03079 5.21122 8.5395 5.58629 8.91457C5.96136 9.28964 6.47007 9.50036 7.0005 9.50036Z" fill="#D7C0F1"/>
</svg>
