<svg width="48" height="49" viewBox="0 0 48 49" fill="none" xmlns="http://www.w3.org/2000/svg">
<rect y="0.902344" width="48" height="48" rx="8" fill="#EDE1FE"/>
<path d="M15 26.0273C15 25.4063 15.504 24.9023 16.125 24.9023H18.375C18.996 24.9023 19.5 25.4063 19.5 26.0273V32.7773C19.5 33.3983 18.996 33.9023 18.375 33.9023H16.125C15.8266 33.9023 15.5405 33.7838 15.3295 33.5728C15.1185 33.3619 15 33.0757 15 32.7773V26.0273ZM21.75 21.5273C21.75 20.9063 22.254 20.4023 22.875 20.4023H25.125C25.746 20.4023 26.25 20.9063 26.25 21.5273V32.7773C26.25 33.3983 25.746 33.9023 25.125 33.9023H22.875C22.5766 33.9023 22.2905 33.7838 22.0795 33.5728C21.8685 33.3619 21.75 33.0757 21.75 32.7773V21.5273ZM28.5 17.0273C28.5 16.4063 29.004 15.9023 29.625 15.9023H31.875C32.496 15.9023 33 16.4063 33 17.0273V32.7773C33 33.3983 32.496 33.9023 31.875 33.9023H29.625C29.3266 33.9023 29.0405 33.7838 28.8295 33.5728C28.6185 33.3619 28.5 33.0757 28.5 32.7773V17.0273Z" stroke="#8639F8" strokeWidth="1.5" stroke-linecap="round" stroke-linejoin="round"/>
</svg>
